<svg width="320" height="240" viewBox="0 0 320 240" fill="none" xmlns="http://www.w3.org/2000/svg">
  <rect width="320" height="240" rx="28" fill="#0B1220"/>
  <circle cx="160" cy="118" r="88" fill="#67E8F9" fill-opacity="0.08"/>
  <path d="M88 132V112C88 72.2355 120.235 40 160 40C199.765 40 232 72.2355 232 112V132" stroke="#67E8F9" stroke-width="14" stroke-linecap="round"/>
  <rect x="62" y="116" width="48" height="76" rx="18" fill="#111C30" stroke="#67E8F9" stroke-width="8"/>
  <rect x="210" y="116" width="48" height="76" rx="18" fill="#111C30" stroke="#67E8F9" stroke-width="8"/>
  <path d="M232 188C232 210 214 222 188 222H166" stroke="#67E8F9" stroke-width="10" stroke-linecap="round"/>
  <rect x="146" y="210" width="42" height="18" rx="9" fill="#67E8F9"/>
  <rect x="126" y="94" width="68" height="48" rx="12" fill="#111C30" stroke="#334155" stroke-width="6"/>
  <circle cx="142" cy="118" r="6" fill="#67E8F9"/>
  <circle cx="160" cy="118" r="6" fill="#67E8F9"/>
  <circle cx="178" cy="118" r="6" fill="#67E8F9"/>
  <text x="160" y="82" text-anchor="middle" fill="#E0F2FE" font-family="Arial, sans-serif" font-size="22" font-weight="800">CLEAR-COM</text>
</svg>
